<svg xmlns="http://www.w3.org/2000/svg" width="65" height="64" viewBox="0 0 65 64" fill="none">
<g clip-path="url(#clip0_854_13771)">
<path d="M8.5 18.6667H16.5" stroke="#A21CAF" stroke-width="4" stroke-linecap="round" stroke-linejoin="round"/>
<path d="M8.5 29.3333H13.8333" stroke="#A21CAF" stroke-width="4" stroke-linecap="round" stroke-linejoin="round"/>
<path d="M24.5533 23.4694L22.9533 39.4694C22.8792 40.2108 22.9612 40.9596 23.1942 41.6673C23.4271 42.3751 23.8058 43.0262 24.3057 43.5787C24.8057 44.1312 25.4159 44.5728 26.097 44.875C26.778 45.1772 27.5149 45.3334 28.26 45.3334H49.54C50.8626 45.3334 52.138 44.8419 53.1186 43.9544C54.0992 43.0669 54.7151 41.8468 54.8467 40.5307L56.4467 24.5307C56.5208 23.7893 56.4388 23.0406 56.2058 22.3328C55.9729 21.625 55.5943 20.9739 55.0943 20.4215C54.5943 19.869 53.9841 19.4274 53.3031 19.1252C52.622 18.8229 51.8851 18.6668 51.14 18.6667H29.86C28.5374 18.6668 27.262 19.1583 26.2814 20.0457C25.3008 20.9332 24.6849 22.1534 24.5533 23.4694Z" stroke="#A21CAF" stroke-width="4" stroke-linecap="round" stroke-linejoin="round"/>
<path d="M26.6333 20L34.5853 28.7467C35.292 29.5241 36.1448 30.1548 37.0953 30.6026C38.0457 31.0505 39.075 31.3067 40.1244 31.3567C41.1738 31.4067 42.2229 31.2496 43.2115 30.8941C44.2002 30.5387 45.1092 29.9921 45.8866 29.2853L54.6333 21.3333" stroke="#A21CAF" stroke-width="4" stroke-linecap="round" stroke-linejoin="round"/>
</g>
<defs>
<clipPath id="clip0_854_13771">
<rect width="64" height="64" fill="white" transform="translate(0.5)"/>
</clipPath>
</defs>
</svg>