<svg xmlns="http://www.w3.org/2000/svg" width="65" height="64" viewBox="0 0 65 64" fill="none">
  <g clip-path="url(#clip0_854_20986)">
    <path d="M13.8333 21.3334C16.7789 21.3334 19.1667 18.9456 19.1667 16.0001C19.1667 13.0546 16.7789 10.6667 13.8333 10.6667C10.8878 10.6667 8.5 13.0546 8.5 16.0001C8.5 18.9456 10.8878 21.3334 13.8333 21.3334Z" stroke="#A21CAF" stroke-width="4" stroke-linecap="round" stroke-linejoin="round"/>
    <path d="M32.5 21.3334C35.4455 21.3334 37.8333 18.9456 37.8333 16.0001C37.8333 13.0546 35.4455 10.6667 32.5 10.6667C29.5544 10.6667 27.1666 13.0546 27.1666 16.0001C27.1666 18.9456 29.5544 21.3334 32.5 21.3334Z" stroke="#A21CAF" stroke-width="4" stroke-linecap="round" stroke-linejoin="round"/>
    <path d="M51.1667 21.3334C54.1122 21.3334 56.5 18.9456 56.5 16.0001C56.5 13.0546 54.1122 10.6667 51.1667 10.6667C48.2212 10.6667 45.8334 13.0546 45.8334 16.0001C45.8334 18.9456 48.2212 21.3334 51.1667 21.3334Z" stroke="#A21CAF" stroke-width="4" stroke-linecap="round" stroke-linejoin="round"/>
    <path d="M13.8333 53.3334C16.7789 53.3334 19.1667 50.9456 19.1667 48.0001C19.1667 45.0546 16.7789 42.6667 13.8333 42.6667C10.8878 42.6667 8.5 45.0546 8.5 48.0001C8.5 50.9456 10.8878 53.3334 13.8333 53.3334Z" stroke="#A21CAF" stroke-width="4" stroke-linecap="round" stroke-linejoin="round"/>
    <path d="M32.5 53.3334C35.4455 53.3334 37.8333 50.9456 37.8333 48.0001C37.8333 45.0546 35.4455 42.6667 32.5 42.6667C29.5544 42.6667 27.1666 45.0546 27.1666 48.0001C27.1666 50.9456 29.5544 53.3334 32.5 53.3334Z" stroke="#A21CAF" stroke-width="4" stroke-linecap="round" stroke-linejoin="round"/>
    <path d="M13.8334 21.3333V42.6666" stroke="#A21CAF" stroke-width="4" stroke-linecap="round" stroke-linejoin="round"/>
    <path d="M32.5 21.3333V42.6666" stroke="#A21CAF" stroke-width="4" stroke-linecap="round" stroke-linejoin="round"/>
    <path d="M51.1667 21.3333V26.6666C51.1667 28.0811 50.6048 29.4376 49.6046 30.4378C48.6044 31.438 47.2479 31.9999 45.8334 31.9999H13.8334" stroke="#A21CAF" stroke-width="4" stroke-linecap="round" stroke-linejoin="round"/>
  </g>
  <defs>
    <clipPath id="clip0_854_20986">
      <rect width="64" height="64" fill="white" transform="translate(0.5)"/>
    </clipPath>
  </defs>
</svg>