<svg xmlns="http://www.w3.org/2000/svg" width="65" height="64" viewBox="0 0 65 64" fill="none">
  <g clip-path="url(#clip0_854_3328)">
    <path d="M40.5 29.3333V29.3599" stroke="#A21CAF" stroke-width="4" stroke-linecap="round" stroke-linejoin="round"/>
    <path d="M43.1667 8V18.1413C46.467 20.051 48.9797 23.0732 50.2547 26.6667H53.8307C54.5379 26.6667 55.2162 26.9476 55.7163 27.4477C56.2164 27.9478 56.4974 28.6261 56.4974 29.3333V34.6667C56.4974 35.3739 56.2164 36.0522 55.7163 36.5523C55.2162 37.0524 54.5379 37.3333 53.8307 37.3333H50.252C49.3549 39.8677 47.8344 42.1356 45.8307 43.928V49.3333C45.8307 50.3942 45.4093 51.4116 44.6591 52.1618C43.909 52.9119 42.8916 53.3333 41.8307 53.3333C40.7698 53.3333 39.7524 52.9119 39.0023 52.1618C38.2521 51.4116 37.8307 50.3942 37.8307 49.3333V47.7787C36.9495 47.9263 36.0575 48.0003 35.164 48H24.4973C23.6039 48.0003 22.7119 47.9263 21.8307 47.7787V49.3333C21.8307 50.3942 21.4093 51.4116 20.6591 52.1618C19.909 52.9119 18.8916 53.3333 17.8307 53.3333C16.7698 53.3333 15.7524 52.9119 15.0023 52.1618C14.2521 51.4116 13.8307 50.3942 13.8307 49.3333V44L13.8334 43.928C11.4174 41.7681 9.71432 38.9254 8.94946 35.7763C8.1846 32.6271 8.39404 29.32 9.55005 26.2925C10.7061 23.265 12.7542 20.6599 15.4233 18.822C18.0924 16.9841 21.2567 16 24.4973 16H31.164L43.164 8H43.1667Z" stroke="#A21CAF" stroke-width="4" stroke-linecap="round" stroke-linejoin="round"/>
  </g>
  <defs>
    <clipPath id="clip0_854_3328">
      <rect width="64" height="64" fill="white" transform="translate(0.5)"/>
    </clipPath>
  </defs>
</svg>